Coordinates
version=1
nRows=60
nColumns=12
inDegrees=yes

Units are S.I. units (second, meters, Newtons, ...)
Angles are in degrees

endheader
time	SC_y	SC_z	SC_x	AC_y	AC_z	AC_x	GH_y	GH_z	GH_yy	EL_x	PS_y
       0.0              -20.16           28.4          10.62          49.44          -15.8         -12.45          166.3          51.24         -172.2          24.38          26.65
   0.01447              -20.17           28.4          10.63          49.44          -15.8         -12.45          166.2          51.24         -172.2          24.37          26.66
   0.02894              -20.17           28.4          10.64          49.43          -15.8         -12.45          166.2          51.25         -172.2          24.37          26.66
   0.04341              -20.17           28.4          10.66          49.43          -15.8         -12.44          166.1          51.25         -172.1          24.37          26.67
   0.05788              -20.17           28.4          10.67          49.43          -15.8         -12.44          166.1          51.25         -172.1          24.36          26.68
   0.07236              -20.17          28.41          10.68          49.42         -15.79         -12.44          166.0          51.25         -172.1          24.36          26.68
   0.08683              -20.17          28.41           10.7          49.42         -15.79         -12.44          165.9          51.25         -172.1          24.36          26.69
    0.1013              -20.18          28.41          10.71          49.42         -15.79         -12.44          165.9          51.26         -172.1          24.35           26.7
    0.1158              -20.18          28.41          10.73          49.41         -15.79         -12.44          165.8          51.26         -172.1          24.35           26.7
    0.1302              -20.18          28.41          10.75          49.41         -15.79         -12.44          165.7          51.26         -172.1          24.34          26.71
    0.1447              -20.19          28.42          10.77           49.4         -15.79         -12.44          165.6          51.27         -172.1          24.34          26.72
    0.1592              -20.19          28.42          10.79           49.4         -15.79         -12.43          165.5          51.27         -172.1          24.33          26.73
    0.1737              -20.19          28.42          10.81          49.39         -15.79         -12.43          165.4          51.27         -172.1          24.33          26.74
    0.1881               -20.2          28.43          10.84          49.39         -15.79         -12.43          165.3          51.28         -172.1          24.32          26.75
    0.2026               -20.2          28.43          10.86          49.38         -15.79         -12.43          165.2          51.28         -172.0          24.31          26.76
    0.2171               -20.2          28.43          10.89          49.37         -15.79         -12.42          165.1          51.29         -172.0          24.31          26.78
    0.2315              -20.21          28.44          10.92          49.37         -15.78         -12.42          165.0          51.29         -172.0           24.3          26.79
     0.246              -20.21          28.44          10.96          49.36         -15.78         -12.42          164.8           51.3         -172.0          24.29          26.81
    0.2605              -20.22          28.45          10.99          49.35         -15.78         -12.42          164.7           51.3         -172.0          24.28          26.82
     0.275              -20.23          28.45          11.03          49.34         -15.78         -12.41          164.5          51.31         -171.9          24.27          26.84
    0.2894              -20.23          28.46          11.08          49.33         -15.78         -12.41          164.3          51.32         -171.9          24.26          26.86
    0.3039              -20.24          28.46          11.13          49.32         -15.78          -12.4          164.1          51.33         -171.9          24.25          26.88
    0.3184              -20.25          28.47          11.18          49.31         -15.77          -12.4          163.9          51.34         -171.9          24.23          26.91
    0.3328              -20.26          28.48          11.24          49.29         -15.77         -12.39          163.6          51.35         -171.8          24.22          26.93
    0.3473              -20.27          28.49          11.31          49.28         -15.77         -12.39          163.3          51.36         -171.8           24.2          26.96
    0.3618              -20.28           28.5          11.38          49.26         -15.76         -12.38          163.0          51.37         -171.8          24.18           27.0
    0.3763              -20.29          28.51          11.46          49.24         -15.76         -12.37          162.6          51.38         -171.7          24.16          27.04
    0.3907               -20.3          28.52          11.56          49.22         -15.76         -12.37          162.2           51.4         -171.7          24.14          27.08
    0.4052              -20.32          28.54          11.66          49.19         -15.75         -12.36          161.8          51.42         -171.6          24.11          27.13
    0.4197              -20.34          28.55          11.78          49.16         -15.75         -12.35          161.3          51.44         -171.5          24.08          27.18
    0.4341              -20.36          28.57          11.92          49.13         -15.74         -12.33          160.7          51.46         -171.5          24.05          27.24
    0.4486              -20.38          28.59          12.08          49.09         -15.74         -12.32          160.0          51.49         -171.4          24.01          27.31
    0.4631              -20.41          28.62          12.26          49.05         -15.73          -12.3          159.2          51.52         -171.3          23.96          27.39
    0.4775              -20.44          28.64          12.47           49.0         -15.72         -12.29          158.3          51.55         -171.2          23.91          27.49
     0.492              -20.48          28.68          12.71          48.94         -15.71         -12.26          157.2          51.59         -171.0          23.84           27.6
    0.5065              -20.52          28.72           13.0          48.87          -15.7         -12.24          156.0          51.64         -170.9          23.77          27.73
     0.521              -20.58          28.76          13.35          48.79         -15.68         -12.21          154.5           51.7         -170.7          23.68          27.89
    0.5354              -20.64          28.82          13.76          48.69         -15.66         -12.17          152.7          51.77         -170.4          23.58          28.08
    0.5499              -20.71          28.88          14.26          48.58         -15.64         -12.13          150.6          51.85         -170.2          23.45           28.3
    0.5644              -20.81          28.97          14.87          48.43         -15.62         -12.07          147.9          51.96         -169.8           23.3          28.58
    0.5788              -20.92          29.07          15.63          48.25         -15.58         -12.01          144.7          52.08         -169.4           23.1          28.92
    0.5933              -21.06          29.19          16.57          48.03         -15.54         -11.93          140.6          52.24         -168.9          22.87          29.35
    0.6078              -21.24          29.35          17.75          47.75         -15.49         -11.82          135.5          52.44         -168.3          22.57          29.89
    0.6223              -21.47          29.55          19.26          47.39         -15.43         -11.69          129.0          52.69         -167.4          22.18          30.57
    0.6367              -21.76          29.81          21.19          46.94         -15.35         -11.52          120.7          53.02         -166.4          21.69          31.44
    0.6512              -22.13          30.14          23.66          46.35         -15.24          -11.3          110.0          53.43         -165.0          21.07          32.56
    0.6657              -22.61          30.56          26.82           45.6         -15.11         -11.03          96.36          53.96         -163.3          20.26           34.0
    0.6801              -23.21          31.09           30.8          44.66         -14.94         -10.68          79.21          54.63         -161.1          19.26           35.8
    0.6946              -23.94          31.74          35.64          43.51         -14.73         -10.25          58.31          55.45         -158.4          18.03          37.99
    0.7091              -24.79          32.49          41.25          42.18         -14.49          -9.76          34.09          56.39         -155.3           16.6          40.54
    0.7236              -25.71           33.3          47.33          40.74         -14.23         -9.226          7.863          57.41         -152.0          15.06          43.29
     0.738              -26.62          34.12          53.41           39.3         -13.97         -8.693         -18.36          58.43         -148.7          13.52          46.05
    0.7525              -27.47          34.87          59.02          37.97         -13.73           -8.2         -42.59          59.38         -145.6          12.09          48.59
     0.767               -28.2          35.51          63.86          36.83         -13.53         -7.775         -63.48          60.19         -142.9          10.86          50.78
    0.7814               -28.8          36.04          67.84          35.89         -13.36         -7.426         -80.63          60.86         -140.7          9.854          52.59
    0.7959              -29.28          36.47           71.0          35.14         -13.22         -7.149         -94.27          61.39         -139.0          9.052          54.02
    0.8104              -29.65           36.8          73.47          34.55         -13.12         -6.932         -104.9          61.81         -137.6          8.424          55.14
    0.8249              -29.95          37.06           75.4          34.09         -13.04         -6.762         -113.3          62.13         -136.6          7.935          56.01
    0.8393              -30.17          37.26           76.9          33.74         -12.97          -6.63         -119.8          62.38         -135.8          7.553           56.7
    0.8538              -30.35          37.42          78.09          33.46         -12.92         -6.526         -124.9          62.58         -135.1          7.252          57.23
